<svg width="216" height="52" fill="none" xmlns="http://www.w3.org/2000/svg"><path d="M44.55 44.48C39.52 49.492 33.364 52 26.083 52c-7.281 0-13.46-2.507-18.538-7.52C2.515 39.417 0 33.257 0 26c0-7.258 2.515-13.394 7.545-18.408C12.622 2.531 18.802 0 26.083 0 33.364 0 39.52 2.53 44.55 7.592c5.078 5.014 7.616 11.15 7.616 18.408 0 7.258-2.538 13.418-7.616 18.48zm-31.185-5.587c3.449 3.39 7.688 5.085 12.718 5.085s9.245-1.695 12.647-5.085c3.449-3.438 5.173-7.736 5.173-12.893 0-5.157-1.724-9.43-5.173-12.82-3.402-3.439-7.617-5.158-12.647-5.158s-9.27 1.719-12.718 5.157C9.964 16.57 8.263 20.843 8.263 26s1.7 9.455 5.102 12.893zM80.205 52c-7.808 0-13.198-3.056-16.168-9.168l7.114-4.154c1.629 3.533 4.67 5.3 9.126 5.3 2.874 0 5.077-.692 6.61-2.077 1.581-1.433 2.371-3.438 2.371-6.017V.931h8.264v34.953c0 5.157-1.63 9.145-4.887 11.962-3.257 2.77-7.4 4.154-12.43 4.154zm48.459 0c-7.808 0-13.197-3.056-16.167-9.168l7.114-4.154c1.628 3.533 4.67 5.3 9.125 5.3 2.874 0 5.078-.692 6.611-2.077 1.581-1.433 2.371-3.438 2.371-6.017V.931h8.263v34.953c0 5.157-1.628 9.145-4.886 11.962-3.257 2.77-7.401 4.154-12.431 4.154zm79.719-7.52c-5.029 5.013-11.185 7.52-18.466 7.52-7.281 0-13.461-2.507-18.539-7.52-5.029-5.062-7.544-11.222-7.544-18.48 0-7.258 2.515-13.394 7.544-18.408C176.456 2.531 182.636 0 189.917 0c7.281 0 13.437 2.53 18.466 7.592C213.461 12.606 216 18.742 216 26c0 7.258-2.539 13.418-7.617 18.48zm-31.184-5.587c3.449 3.39 7.688 5.085 12.718 5.085s9.245-1.695 12.646-5.085c3.449-3.438 5.174-7.736 5.174-12.893 0-5.157-1.725-9.43-5.174-12.82-3.401-3.439-7.616-5.158-12.646-5.158-5.03 0-9.269 1.719-12.718 5.157-3.401 3.39-5.102 7.664-5.102 12.821s1.701 9.455 5.102 12.893z" fill="#fff"/></svg>